<svg xmlns="http://www.w3.org/2000/svg" viewBox="0 0 100 100" width="100" height="100" fill="none">
  <!-- Background Circle -->
  <circle cx="50" cy="50" r="48" fill="#1A73E8" stroke="#E8E8E8" stroke-width="2"/>

  <!-- Chat Bubble -->
  <path d="M30 35h40c2.2 0 4 1.8 4 4v15c0 2.2-1.8 4-4 4H50l-10 10v-10H30c-2.2 0-4-1.8-4-4V39c0-2.2 1.8-4 4-4z" fill="#FFFFFF"/>

  <!-- AI Neural Pattern -->
  <g stroke="#F4C542" stroke-width="1.5" stroke-linecap="round">
    <line x1="40" y1="40" x2="45" y2="50" />
    <line x1="45" y1="50" x2="50" y2="45" />
    <line x1="50" y1="45" x2="55" y2="55" />
    <line x1="55" y1="55" x2="60" y2="50" />
  </g>

  <!-- Glow Effect -->
  <circle cx="50" cy="50" r="48" fill="url(#glow)" opacity="0.2"/>
  <defs>
    <radialGradient id="glow" cx="0.5" cy="0.5" r="0.5" gradientUnits="objectBoundingBox">
      <stop offset="0%" stop-color="#F4C542" />
      <stop offset="100%" stop-color="#1A73E8" stop-opacity="0" />
    </radialGradient>
  </defs>
</svg>
